<svg width="17" height="17" viewBox="0 0 17 17" fill="none" xmlns="http://www.w3.org/2000/svg">
<path d="M14.1113 7.79063H11.0941C10.8941 7.79063 10.7022 7.71116 10.5608 7.5697C10.4193 7.42825 10.3398 7.23639 10.3398 7.03634V4.33851C10.3398 4.13847 10.4193 3.94661 10.5608 3.80515C10.7022 3.6637 10.8941 3.58423 11.0941 3.58423H13.357C13.557 3.58423 13.7489 3.6637 13.8903 3.80515C14.0318 3.94661 14.1113 4.13847 14.1113 4.33851V8.86423C14.1113 10.8759 13.1058 12.1325 11.0941 12.6357" stroke="white" stroke-width="1.3" stroke-linecap="round" stroke-linejoin="round"/>
<path d="M7.26752 7.79063H4.25038C4.05033 7.79063 3.85848 7.71116 3.71702 7.5697C3.57556 7.42825 3.49609 7.23639 3.49609 7.03634V4.33851C3.49609 4.13847 3.57556 3.94661 3.71702 3.80515C3.85848 3.6637 4.05033 3.58423 4.25038 3.58423H6.51324C6.71329 3.58423 6.90514 3.6637 7.0466 3.80515C7.18805 3.94661 7.26752 4.13847 7.26752 4.33851V8.86423C7.26752 10.8759 6.26206 12.1325 4.25038 12.6357" stroke="white" stroke-width="1.3" stroke-linecap="round" stroke-linejoin="round"/>
</svg>
