<svg width="17" height="17" viewBox="0 0 17 17" fill="none" xmlns="http://www.w3.org/2000/svg">
<path d="M13.4676 3.51355C12.9676 3.01345 11.9962 3.02553 10.7674 3.54712C9.53857 4.06871 8.15287 5.05709 6.91513 6.29483C5.67739 7.53257 4.689 8.91828 4.16741 10.1471C3.64582 11.376 3.63374 12.3473 4.13384 12.8474C4.63394 13.3475 5.60524 13.3354 6.83408 12.8138C8.06291 12.2922 9.44862 11.3038 10.6864 10.0661C11.2992 9.4532 11.8573 8.79757 12.3288 8.13659C12.8002 7.47561 13.1758 6.82224 13.4341 6.21379C13.6923 5.60533 13.8282 5.0537 13.834 4.59039C13.8398 4.12708 13.7153 3.76117 13.4676 3.51355" stroke="white" stroke-width="1.3" stroke-linecap="round" stroke-linejoin="round"/>
<path d="M4.13562 3.51355C3.63552 4.01365 3.6476 4.98495 4.16919 6.21379C4.69078 7.44263 5.67916 8.82833 6.9169 10.0661C8.15464 11.3038 9.54035 12.2922 10.7692 12.8138C11.998 13.3354 12.9693 13.3475 13.4694 12.8474C13.9695 12.3473 13.9574 11.376 13.4359 10.1471C12.9143 8.91829 11.9259 7.53258 10.6881 6.29484C10.0753 5.68197 9.41964 5.12388 8.75866 4.65242C8.09768 4.18097 7.44431 3.80539 6.83586 3.54712C6.2274 3.28886 5.67577 3.15296 5.21246 3.1472C4.74915 3.14144 4.38324 3.26593 4.13562 3.51355" stroke="white" stroke-width="1.3" stroke-linecap="round" stroke-linejoin="round"/>
</svg>
