<svg width="28" height="29" viewBox="0 0 28 29" fill="none" xmlns="http://www.w3.org/2000/svg">
<rect y="0.275879" width="28" height="28" rx="7" fill="#E9F0F9"/>
<path d="M8.3125 23.2043H19.6929C20.6594 23.2043 21.4429 22.4208 21.4429 21.4543V11.9475C21.4429 11.4794 21.2553 11.0307 20.9221 10.7019L16.0073 5.85213C15.6798 5.52897 15.2382 5.34778 14.7781 5.34778H8.3125C7.346 5.34778 6.5625 6.13128 6.5625 7.09778V21.4543C6.5625 22.4208 7.346 23.2043 8.3125 23.2043Z" fill="#2454FF"/>
<path fill-rule="evenodd" clip-rule="evenodd" d="M15.2734 5.35925V9.76713C15.2734 10.7336 16.0569 11.5171 17.0234 11.5171H17.5961H21.4356C21.4201 11.3067 21.3288 11.1081 21.1776 10.9589L15.7469 5.59997C15.617 5.47182 15.4512 5.38832 15.2734 5.35925Z" fill="#1A2029" style="mix-blend-mode:multiply"/>
<path d="M11.9805 16.984C11.9805 16.6216 12.2743 16.3278 12.6367 16.3278H18.0084C18.3708 16.3278 18.6647 16.6216 18.6647 16.984C18.6647 17.3464 18.3708 17.6403 18.0084 17.6403H12.6367C12.2743 17.6403 11.9805 17.3464 11.9805 16.984Z" fill="#E4ECF6"/>
<path d="M11.9805 14.1486C11.9805 13.7861 12.2743 13.4923 12.6367 13.4923H18.0084C18.3708 13.4923 18.6647 13.7861 18.6647 14.1486C18.6647 14.511 18.3708 14.8048 18.0084 14.8048H12.6367C12.2743 14.8048 11.9805 14.511 11.9805 14.1486Z" fill="#E4ECF6"/>
<path d="M11.9805 19.8193C11.9805 19.4569 12.2743 19.1631 12.6367 19.1631H15.1438C15.5062 19.1631 15.8 19.4569 15.8 19.8193C15.8 20.1818 15.5062 20.4756 15.1438 20.4756H12.6367C12.2743 20.4756 11.9805 20.1818 11.9805 19.8193Z" fill="#E4ECF6"/>
<path d="M9.33203 16.984C9.33203 16.6216 9.62798 16.3278 9.99042 16.3278C10.3529 16.3278 10.6488 16.6216 10.6488 16.984C10.6488 17.3464 10.3529 17.6403 9.99042 17.6403C9.62798 17.6403 9.33203 17.3464 9.33203 16.984Z" fill="#9FB4FB"/>
<path d="M9.33203 14.1486C9.33203 13.7861 9.62798 13.4923 9.99042 13.4923C10.3529 13.4923 10.6488 13.7861 10.6488 14.1486C10.6488 14.511 10.3529 14.8048 9.99042 14.8048C9.62798 14.8048 9.33203 14.511 9.33203 14.1486Z" fill="#9FB4FB"/>
<path d="M9.33203 19.8193C9.33203 19.4569 9.62798 19.1631 9.99042 19.1631C10.3529 19.1631 10.6488 19.4569 10.6488 19.8193C10.6488 20.1818 10.3529 20.4756 9.99042 20.4756C9.62798 20.4756 9.33203 20.1818 9.33203 19.8193Z" fill="#9FB4FB"/>
</svg>
