<svg width="28" height="29" viewBox="0 0 28 29" fill="none" xmlns="http://www.w3.org/2000/svg">
<rect y="0.275879" width="28" height="28" rx="7" fill="#E9F0F9"/>
<path d="M9.25 23.2043H20.6304C21.5969 23.2043 22.3804 22.4208 22.3804 21.4543V11.9475C22.3804 11.4794 22.1928 11.0307 21.8596 10.7019L16.9448 5.85213C16.6173 5.52897 16.1757 5.34778 15.7156 5.34778H9.25C8.2835 5.34778 7.5 6.13128 7.5 7.09778V21.4543C7.5 22.4208 8.2835 23.2043 9.25 23.2043Z" fill="#2454FF"/>
<path fill-rule="evenodd" clip-rule="evenodd" d="M16.2109 5.35913V9.767C16.2109 10.7335 16.9944 11.517 17.9609 11.517H18.5336H22.3731C22.3576 11.3066 22.2663 11.108 22.1151 10.9588L16.6844 5.59985C16.5545 5.47169 16.3887 5.38819 16.2109 5.35913Z" fill="#9FB4FB" style="mix-blend-mode:multiply"/>
<path d="M11.4344 21.1737L13.9091 18.699C14.1847 18.4234 13.9895 17.9521 13.5997 17.9521H11.125C10.8834 17.9521 10.6875 18.148 10.6875 18.3896V20.8643C10.6875 21.2541 11.1587 21.4493 11.4344 21.1737Z" fill="#1A2029"/>
<rect x="4.67188" y="10.8712" width="10.2111" height="8.75" rx="1.75" fill="#1A2029"/>
<path d="M8.35938 13.9524C8.35938 13.1883 9.01325 12.5688 9.81984 12.5688C10.6264 12.5688 11.2803 13.1883 11.2803 13.9524C11.2803 14.457 10.9951 14.8985 10.5691 15.1402C10.193 15.3536 9.81984 15.6865 9.81984 16.1189V16.1189" stroke="#E9F0F9" stroke-width="1.3125" stroke-linecap="round" stroke-linejoin="round"/>
<circle cx="9.82031" cy="17.877" r="0.65625" fill="#E9F0F9"/>
</svg>
